name analog
datacolumns 19
datarows 37
range 0.0 0.018000000000000002
endheader
time	ground_force_vx	ground_force_vy	ground_force_vz	ground_force_px	ground_force_py	ground_force_pz	l_ground_force_vx	l_ground_force_vy	l_ground_force_vz	l_ground_force_px	l_ground_force_py	l_ground_force_pz	ground_torque_x	ground_torque_y	ground_torque_z	l_ground_torque_x	l_ground_torque_y	l_ground_torque_z
0.0	-0.0	-0.0	-0.0	1.1647965908050537	42.20744705200195	-312.244384765625	2.736610651016236	-46.78376388549805	-330.9957275390625	-0.0	-0.0	-0.0	-0.0	-0.0	-0.0	83697.28125	-1084.9599609375	-1484.161376953125
0.0005	-0.0	-0.0	-0.0	1.4496312141418457	42.03393173217773	-311.3105773925781	2.7586662769317627	-46.58539581298828	-331.2923889160156	-0.0	-0.0	-0.0	-0.0	-0.0	-0.0	83798.2890625	-891.7457885742188	-1390.69189453125
0.001	-0.0	-0.0	-0.0	1.4499489068984983	42.37688446044922	-312.8119201660156	2.319763660430908	-46.8591423034668	-328.9699401855469	-0.0	-0.0	-0.0	-0.0	-0.0	-0.0	83970.0546875	-1207.6322021484375	-1434.126220703125
0.0015	-0.0	-0.0	-0.0	1.0837812423706057	42.1948356628418	-312.56427001953125	2.2441954612731934	-46.40458679199219	-330.45343017578125	-0.0	-0.0	-0.0	-0.0	-0.0	-0.0	83916.4296875	-1110.12451171875	-1337.4998779296875
0.002	-0.0	-0.0	-0.0	1.1729141473770142	42.0563850402832	-313.0097961425781	2.230905294418335	-46.73525238037109	-330.34912109375	-0.0	-0.0	-0.0	-0.0	-0.0	-0.0	83465.2734375	-1046.679443359375	-1327.5963134765625
0.0025	-0.0	-0.0	-0.0	1.348681092262268	42.25832748413086	-311.7123718261719	2.431609869003296	-46.44698333740234	-329.7939453125	-0.0	-0.0	-0.0	-0.0	-0.0	-0.0	83796.1875	-837.4472045898438	-1303.1080322265625
0.003	-0.0	-0.0	-0.0	1.5405333042144775	42.20869445800781	-313.06396484375	2.395191192626953	-46.181636810302734	-330.6466064453125	-0.0	-0.0	-0.0	-0.0	-0.0	-0.0	83735.515625	-981.1416015625	-1370.2220458984375
0.0035	-0.0	-0.0	-0.0	1.3884477615356443	42.32398223876953	-313.4696960449219	2.496834754943848	-46.620975494384766	-329.05352783203125	-0.0	-0.0	-0.0	-0.0	-0.0	-0.0	83654.1171875	-1241.142333984375	-1395.6268310546875
0.004	-0.0	-0.0	-0.0	1.3252551555633545	42.34983444213867	-312.6620178222656	2.585474967956543	-46.356082916259766	-328.7541809082031	-0.0	-0.0	-0.0	-0.0	-0.0	-0.0	83630.8125	-1003.581787109375	-1251.96728515625
0.0045000000000000005	-0.0	-0.0	-0.0	1.0961757898330688	42.311317443847656	-311.9594421386719	2.8635311126708984	-46.44447708129883	-329.59912109375	-0.0	-0.0	-0.0	-0.0	-0.0	-0.0	83701.5703125	-863.2129516601562	-1403.97021484375
0.005	-0.0	-0.0	-0.0	1.210755705833435	41.86587905883789	-313.119140625	2.5853281021118164	-46.0786018371582	-328.8007202148437	-0.0	-0.0	-0.0	-0.0	-0.0	-0.0	83417.140625	-1069.797607421875	-1361.6556396484375
0.0055	-0.0	-0.0	-0.0	1.2743302583694458	42.273170471191406	-313.2203674316406	2.55996036529541	-46.12911224365234	-328.2523193359375	-0.0	-0.0	-0.0	-0.0	-0.0	-0.0	83589.0859375	-921.825439453125	-1399.8751220703125
0.006	-0.0	-0.0	-0.0	0.7767531871795654	42.4900016784668	-311.6545104980469	2.407766342163086	-45.95231628417969	-328.5489807128906	-0.0	-0.0	-0.0	-0.0	-0.0	-0.0	83466.3125	-1005.026123046875	-1472.1363525390625
0.006500000000000001	-0.0	-0.0	-0.0	1.5040284395217896	42.50402069091797	-314.3798217773437	2.255305290222168	-46.34397506713867	-328.8515625	-0.0	-0.0	-0.0	-0.0	-0.0	-0.0	83412.7734375	-904.5003051757812	-1429.8575439453125
0.007	-0.0	-0.0	-0.0	1.006275653839111	42.23534393310547	-312.9174194335937	2.2426538467407227	-45.88850784301758	-329.8503723144531	-0.0	-0.0	-0.0	-0.0	-0.0	-0.0	83454.265625	-1172.0244140625	-1306.95751953125
0.0075	-0.0	-0.0	-0.0	1.2613494396209717	42.26020050048828	-313.36883544921875	2.269385814666748	-46.14085388183594	-327.30108642578125	-0.0	-0.0	-0.0	-0.0	-0.0	-0.0	83343.5078125	-1261.900146484375	-1412.5849609375
0.008	-0.0	-0.0	-0.0	1.353333830833435	42.74277877807617	-311.7489624023437	2.15366268157959	-46.15550231933594	-328.1056823730469	-0.0	-0.0	-0.0	-0.0	-0.0	-0.0	83267.6875	-1193.706298828125	-1302.2000732421875
0.0085	-0.0	-0.0	-0.0	0.953411877155304	42.81047439575195	-312.7584533691406	2.4594526290893555	-46.37200927734375	-328.9489440917969	-0.0	-0.0	-0.0	-0.0	-0.0	-0.0	83368.6796875	-1411.3297119140625	-1387.887939453125
0.009000000000000001	-0.0	-0.0	-0.0	1.0544610023498535	43.078216552734375	-313.73565673828125	2.370882034301758	-45.927276611328125	-327.9490661621094	-0.0	-0.0	-0.0	-0.0	-0.0	-0.0	83217.8984375	-1189.7049560546875	-1339.5833740234375
0.0095	-0.0	-0.0	-0.0	1.02982497215271	42.91238784790039	-313.86383056640625	2.4476277828216557	-45.82691955566406	-327.7582092285156	-0.0	-0.0	-0.0	-0.0	-0.0	-0.0	83128.0234375	-1278.0260009765625	-1485.0146484375
0.01	-0.0	-0.0	-0.0	1.3671199083328247	42.84764862060547	-314.91265869140625	2.1937413215637207	-45.76259613037109	-326.5513610839844	-0.0	-0.0	-0.0	-0.0	-0.0	-0.0	83303.640625	-1191.884765625	-1463.6014404296875
0.0105	-0.0	-0.0	-0.0	0.8867958188056946	43.19232177734375	-316.2593994140625	1.8987786769866943	-45.62158203125	-328.1084289550781	-0.0	-0.0	-0.0	-0.0	-0.0	-0.0	83327.40625	-1126.1170654296875	-1408.4437255859375
0.011	-0.0	-0.0	-0.0	1.1359057426452637	42.96696472167969	-314.30718994140625	1.7567890882492063	-45.67414474487305	-328.0622253417969	-0.0	-0.0	-0.0	-0.0	-0.0	-0.0	82855.3984375	-1215.66259765625	-1608.2373046875
0.0115	-0.0	-0.0	-0.0	0.9276182651519777	43.15094375610352	-316.1897888183594	1.874729871749878	-45.785888671875	-328.5052490234375	-0.0	-0.0	-0.0	-0.0	-0.0	-0.0	82844.21875	-1344.8447265625	-1446.01123046875
0.012	-0.0	-0.0	-0.0	0.8382177948951721	43.72773742675781	-315.1763610839844	2.18254828453064	-45.86883163452149	-326.50299072265625	-0.0	-0.0	-0.0	-0.0	-0.0	-0.0	82996.890625	-1184.8170166015625	-1562.6630859375
0.0125	-0.0	-0.0	-0.0	0.7838643193244934	44.1035041809082	-316.0497436523437	1.9516372680664065	-45.80412292480469	-327.06329345703125	-0.0	-0.0	-0.0	-0.0	-0.0	-0.0	83024.890625	-1111.7421875	-1519.21240234375
0.013000000000000001	-0.0	-0.0	-0.0	0.9929487705230712	43.51888275146485	-316.18817138671875	1.8629264831542969	-45.44354248046875	-325.57586669921875	-0.0	-0.0	-0.0	-0.0	-0.0	-0.0	82946.59375	-1132.1142578125	-1564.384521484375
0.0135	-0.0	-0.0	-0.0	1.237384796142578	43.95284271240234	-317.24713134765625	2.0598812103271484	-45.861915588378906	-327.3226928710937	-0.0	-0.0	-0.0	-0.0	-0.0	-0.0	82996.78125	-1110.67626953125	-1497.2412109375
0.014	-0.0	-0.0	-0.0	1.0360721349716189	43.94129180908203	-318.0332946777344	1.685504913330078	-45.91587448120117	-326.1526794433594	-0.0	-0.0	-0.0	-0.0	-0.0	-0.0	83113.796875	-1220.0894775390625	-1471.6611328125
0.0145	-0.0	-0.0	-0.0	1.1711580753326416	44.21793365478516	-318.4778747558594	2.0721116065979004	-45.608009338378906	-326.197265625	-0.0	-0.0	-0.0	-0.0	-0.0	-0.0	82956.2890625	-995.885986328125	-1574.68798828125
0.015	-0.0	-0.0	-0.0	1.2602978944778442	43.98505783081055	-317.99676513671875	1.8855648040771484	-45.673583984375	-326.456787109375	-0.0	-0.0	-0.0	-0.0	-0.0	-0.0	82968.5859375	-1114.872802734375	-1571.09912109375
0.0155	-0.0	-0.0	-0.0	1.5719701051712036	43.7302131652832	-318.6575622558594	1.5642929077148438	-45.651123046875	-327.2829895019531	-0.0	-0.0	-0.0	-0.0	-0.0	-0.0	82927.0	-1175.704345703125	-1538.3857421875
0.016	-0.0	-0.0	-0.0	1.4161585569381714	44.26421356201172	-318.0394592285156	1.6079729795455933	-45.838958740234375	-326.41278076171875	-0.0	-0.0	-0.0	-0.0	-0.0	-0.0	83010.4296875	-1238.971435546875	-1489.96337890625
0.0165	-0.0	-0.0	-0.0	0.925500750541687	43.763031005859375	-318.1263732910156	2.0181448459625244	-45.618202209472656	-325.7147827148437	-0.0	-0.0	-0.0	-0.0	-0.0	-0.0	82618.4609375	-1180.0341796875	-1478.504638671875
0.017	-0.0	-0.0	-0.0	1.1147993803024292	44.11955261230469	-319.3623046875	1.8518881797790527	-45.617950439453125	-325.62652587890625	-0.0	-0.0	-0.0	-0.0	-0.0	-0.0	82601.6796875	-1261.9564208984375	-1564.0084228515625
0.0175	-0.0	-0.0	-0.0	1.292937397956848	43.81919479370117	-319.1875915527344	1.83002245426178	-45.507511138916016	-325.3661499023437	-0.0	-0.0	-0.0	-0.0	-0.0	-0.0	82587.015625	-1226.682373046875	-1612.115478515625
0.018000000000000002	-0.0	-0.0	-0.0	0.9922354817390442	43.806671142578125	-319.851318359375	1.9625279903411863	-45.48567199707031	-325.366455078125	-0.0	-0.0	-0.0	-0.0	-0.0	-0.0	82635.4296875	-1219.254150390625	-1608.3741455078125
